<svg xmlns="http://www.w3.org/2000/svg" width="15.652" height="12.783" viewBox="0 0 15.652 12.783">
  <g id="Group_21855" data-name="Group 21855" transform="translate(-1030 -1090)">
    <g id="folder" transform="translate(1030 1084.5)">
      <path id="Path_2805" data-name="Path 2805" d="M5.13,23.5a.148.148,0,0,0-.142.109L2,31.065v.261c0,.191-.012.261.147.261H13.823a.662.662,0,0,0,.639-.473l2.668-7.353V23.5Z" transform="translate(-1.478 -13.304)" fill="#50a0fc"/>
      <path id="Path_2806" data-name="Path 2806" d="M3.321,9.674H14.087V8.039a.713.713,0,0,0-.713-.713H6.917L5.613,5.5H.713A.714.714,0,0,0,0,6.213v10.9l2.682-6.97A.662.662,0,0,1,3.321,9.674Z" fill="#50a0fc"/>
    </g>
  </g>
</svg>
