<svg xmlns="http://www.w3.org/2000/svg" width="39.187" height="29.39" viewBox="0 0 39.187 29.39">
  <path id="Path_2807" data-name="Path 2807" d="M58.539,30.313H29.148a4.9,4.9,0,0,0-4.9,4.9V54.8c0,.093.022.179.027.27a1.233,1.233,0,0,0,.059.58A4.9,4.9,0,0,0,29.148,59.7h29.39a4.9,4.9,0,0,0,4.9-4.9V35.211a4.9,4.9,0,0,0-4.9-4.9Zm-29.39,3.265h29.39a1.635,1.635,0,0,1,1.634,1.634V48.174l-8.59-8.59a2.868,2.868,0,0,0-4.05,0l-7.772,7.772L37.7,45.3a2.868,2.868,0,0,0-4.051,0l-6.14,6.14V35.211a1.639,1.639,0,0,1,1.636-1.634Zm0,0" transform="translate(-24.25 -30.313)" fill="#0974df"/>
</svg>
