<svg id="Layer_1_155_" xmlns="http://www.w3.org/2000/svg" width="17.546" height="17.568" viewBox="0 0 17.546 17.568">
  <g id="Group_20416" data-name="Group 20416" transform="translate(0)">
    <path id="Path_1172" data-name="Path 1172" d="M14.826,8.368H8.838a.8.8,0,1,0,0,1.6h5.989a.8.8,0,1,0,0-1.6Z" transform="translate(-5.045 -5.24)" fill="#fff"/>
    <path id="Path_1173" data-name="Path 1173" d="M15.625,17.177a.8.8,0,0,0-.8-.8H8.838a.8.8,0,1,0,0,1.6h5.989A.8.8,0,0,0,15.625,17.177Z" transform="translate(-5.045 -10.257)" fill="#fff"/>
    <path id="Path_1174" data-name="Path 1174" d="M11.832,25.987a.8.8,0,0,0,0-1.6H8.838a.8.8,0,1,0,0,1.6Z" transform="translate(-5.045 -15.274)" fill="#fff"/>
    <path id="Path_1175" data-name="Path 1175" d="M12.843,13.43l-.838.553V15.97H1.625V1.6h10.38V4.753l1.6-2.766V.8a.8.8,0,0,0-.8-.8H.826a.8.8,0,0,0-.8.8V16.769a.8.8,0,0,0,.8.8H12.8a.8.8,0,0,0,.8-.8v-4.4l-.382.66A1.2,1.2,0,0,1,12.843,13.43Z" transform="translate(-0.028)" fill="#fff"/>
    <path id="Path_1176" data-name="Path 1176" d="M32.894,6.99a2.278,2.278,0,0,0-1.2-1.3,2.275,2.275,0,0,0-1.73-.388.4.4,0,0,0-.226.181l-4.991,8.644a.4.4,0,0,0-.053.176l-.187,3.119a.4.4,0,0,0,.618.357l2.608-1.722a.394.394,0,0,0,.126-.133L32.85,7.276A.4.4,0,0,0,32.894,6.99Zm-6.763,9.4a3.511,3.511,0,0,0-.445-.3,3.568,3.568,0,0,0-.485-.235l.056-.935a2.9,2.9,0,0,1,1.656.956Z" transform="translate(-15.357 -3.291)" fill="#fff"/>
    <path id="Path_1177" data-name="Path 1177" d="M9.856,34.6c.026.16.211.21.335.262s.262-.045.362-.093c.609-.3,1.435.052,2.087.052a.3.3,0,0,0,0-.6,12.424,12.424,0,0,0-2.148-.068.376.376,0,0,0-.063-.183.472.472,0,0,0-.5-.28.705.705,0,0,0-.04-.086.278.278,0,0,0-.187-.132A1.252,1.252,0,0,0,9.909,32.4a.3.3,0,0,0-.259-.148c-.4-.015-.743.4-1,.657a19.514,19.514,0,0,0-1.758,2.059c-.235.306.285.6.517.3a21.342,21.342,0,0,1,1.555-1.817c-.133.219-.275.434-.424.641-.213.329.3.61.517.3a.673.673,0,0,1,.193-.188l-.044.111h0c-.012.024-.023.048-.033.071-.134.335.366.489.548.23a1.885,1.885,0,0,0,.127-.207A.9.9,0,0,0,9.856,34.6Z" transform="translate(-4.289 -20.198)" fill="#fff"/>
  </g>
</svg>
